/* XPM */
static char *_540034083627[] = {
/* columns rows colors chars-per-pixel */
"64 64 63 1 ",
"  c #0C0C0C",
". c #151515",
"X c #181817",
"o c #1C1C1C",
"O c #20201F",
"+ c #252525",
"@ c #282727",
"# c #282827",
"$ c #272728",
"% c #282728",
"& c #2B2B2B",
"* c #302F2F",
"= c #30302F",
"- c #333333",
"; c #383737",
": c #383837",
"> c #3C3B3B",
", c #403F3F",
"< c #40403F",
"1 c #444444",
"2 c #484747",
"3 c #484847",
"4 c #4B4B4B",
"5 c #504F4F",
"6 c #4F504F",
"7 c #50504F",
"8 c #545453",
"9 c #585757",
"0 c #585857",
"q c #5C5C5B",
"w c #605F5F",
"e c #60605F",
"r c #636363",
"t c #686767",
"y c #686867",
"u c #6C6C6B",
"i c #706F6F",
"p c #70706F",
"a c #747473",
"s c #787777",
"d c #787877",
"f c #7C7C7B",
"g c #807F7F",
"h c #80807F",
"j c #848383",
"k c #888787",
"l c #888887",
"z c #8C8C8B",
"x c #908F8F",
"c c #90908F",
"v c #939392",
"b c #989797",
"n c #989897",
"m c #9B9B9B",
"M c #A09F9F",
"N c #A0A09F",
"B c #A3A3A3",
"V c #A8A7A7",
"C c #A8A8A7",
"Z c #ABABAB",
"A c #B3B3B2",
"S c #B8B8B7",
"D c #BABAB9",
/* pixels */
"%#++$$+$$$%##$&&&$$$$$&&64qaaayq6O.-:--&+oX+$$&&&$$$+$+#$$&&$+++",
"%+++++++$$$$%&&&$$$$$$$&6>>rffar61oo--:=+o.+$$&&$&$$&+$+##+OOOO+",
"131<-&+O$$#+&&##&$$$&$&&41>qydduq61oo-:-$o.$&&$$$$$$+$&+$+O66<>>",
"qyut8-&X$$###$$&&$=$&=&&4880quaay041oo--&O.$&&&$&$$&$&$&+&qyppeq",
"36wr0-+X###$##&&&&&&&&*&48qq8qpayq631o+-=$.$$$$$&&&&$&&O-yr--qe6",
"316qq2&X##$#&&##&&&&-&=&38rq88epye0411+o=$.$&*-$&$&$$&$-q083>0e8",
"3>>464-X$$$#&&#&&&&&&-&-16qq066eyrq611<o$>o$==*&&&$&$$&>>1661188",
"2:*;11;X$##$&&&&&$--&&--14qqq614qrq63<>>o=$$==&&=&$&&&$o&>341-16",
"1;&$*-*o##$$&&&&$**-*---,>6qq91<3qe821;-*oo***&*&&$&&$+X$->11-&>",
";>*+O*&X$&&&&=&=&**----->>48q93>>3q041;*$$o&-==*&&=&&$+o$O=->>&$",
"o$$o..X.$#$&=&==*$*--->>>-<3684<--4861-&$$o*--**-&==&-+ ..oO$=$.",
"2641116801=#+&==***--->>*$-<4444-*>661>&$oo-*-**=&&&&&$Oooo>461<",
"raarrrafa8:+o=&=----->>1&o--11141-->22>*+Oo;---*-=&==&=&$$$416r0",
"2wur966ry0:Oo=*-;;;>>>11&$;$>1446-$&;11--&.>:----=&=-&&&$$$>->e0",
"43qr9426qq3+O-=->>>>>111$ .O$->>,-$O$-1-$o >;------=&&&$&&$->0qq",
"4,19q4,<164$O--->,>111,0aqqqqrqqr861--&1668re94>==-=-&--&&&$=488",
"4<-382>=->;o*;->><111<qvfjmMBNMmxzfaq6*8qwhhfs8<$=:=&-=&&&&$+:13",
"21==11;&$+o-;-:,1112<wja1rvbmbmmzkfi61&>16faau6;$->----&&$$+X&:>",
"><>&&>-&.o*--:><111<tdyaalvbmmmmvxjd8,*;8sjsayrq&->:---&&&&o++$-",
"$&&+OO&++-=-::,<11<afriafjzvmmBNmmvhuw--8uhdsrqq-->::-=&&&=o ...",
"+++$$$$&=-->,><<11dfyauadfjcvbbrrre061-14qafar06&:<>:---=&&$++++",
"&&&&&***==->,<1<4fspdaapadjzvbzqytttrut969rupw81$>1>>--&&&=&&$$&",
"$$&&&*&=---><1,6zu>ufauuuafjjvlraaaupau86q8qye6>O48adpy83:+$&$$$",
"&&&&&***-;->1,8fspwafsapuyafjzjujhfauyw44q84qw4:O1>ezzlf8:=o&&$$",
"$$&&&&&---:>;9a0yfjhffautttajhjvbbvka9--1681383-o>;8djkhy<1-o&$$",
"=&=-**--;><>ra36qpfjjffayrryuhzzzxzku8;$;461>>1-o,2qufjjdiq4$o&$",
"::48980qeriur6340rajhffsu00qyaflzzvlr4-$:123>--:o>,6rahhhay61$o$",
"&&-46600ewrr>>4248yffffau64qtudfjzcchr2+--:11-&-o>-1qrahhfiq4>oo",
"++-<1368qqwq4241118uffsayq1633<6qrryyq1*++$--*+O+&$&1qtahhpr8>-.",
"+$-:,14680qwq862111qusfuu4bDzu1uvzzljjfdaatwqq98211,8qqtdfayq<&.",
"OO&--<134688988411>49quu4hDAj8-fmvvvczfffsurrq9663316q8qysdpw6:o",
"OO$---,1641469962>->,286aBBDbu1fNbbbzzjfdaurrw0663116686qidat0<o",
"ooo$--,1>$1816q64>-*->>2fimSCv2fNbbvcljfdairrqq9441146866qaaur1O",
"o.o$&-$+$-66118641<:*--,a6zDZb6dbvvcljhfdaurqq981111269888ruuq4o",
"o&$++o$->>,-;11441>-$++;zvZDAb8dbvczjjffsaurrqq64211>4rw669rrr4O",
"Oo..$&--->>&;>34441-+>*;BBZAVb6smvczjhffsaurrq862212>>wr84469q4$",
"..+&-&*-->-.o$;>11>-++ >ZbVZBv6pvzzjfhffaitrq9644111>*8rq611444$",
"$&&&&&&-->>->4132411<1;umbBBmvqykkjjjfsaiytqq8644111,&>qrr61,22$",
"&&&&*&&->>688fjffsuuuufjhcbbvj6tjjjfhffaaiyw096644111;;4qq91>,>$",
"$&&&&-&---11-rfaayetrwtupfkzft>rfsffaaauyrq86641121>>>>>6r92>--O",
"&$&&&*-*--166rasuattrrqqypdhp4-dkjhfjjjhfffapte861>--<1->694,-$o",
"&&&&&&*&-*166qtaautqqq00qeudp69jyvxvbmBVZZBmbzjar81$+141->661-$.",
",,4866898364>6qtuuttq06468wyt>ay8zzjzvbmMBBmczjfuq>++>64>-141-$.",
";-<689qq841<>16qrtteq84311484-zhvvzkjzxbbbBbvcjfsr6-+-131--,2-$.",
"&$$>2366313<>>16qrrqq8411<<3=8zzxvljhfjzzvbvvzjhsr0-o->44>&&>>o.",
"&O&>1222443<--:160rrq633>:--Oizvvzzjffhhjvvcvzzhat8:o$;112-+$$o$",
"ooO$$$$&*&&<---:140q0831>--o-ifvcxzjfdadfjzzzcljfyq-o$*>41>$.o$$",
"$$$$$$&&&$-6>&&&:>4q0831>-$.4qazvzzhsaapafjjzljfay0:oO$;>1,Oo$$$",
"&$$&$&&&=&-1:=&&&=<66611;&OO88ajzzlhdapryudffjjhau9:.o+*>>+O$$$$",
"&&&&$&&&&&&:-&=&$$=12421-=.,89rdhllhddueqrufdfhffyq:o.o&*o+&$$$$",
"&&&&&$$&&======&$$$-,111:&o868qtaflhddayqqquadffsu0>.$$Oo$$&$$$$",
"&$&$$$$&&&&&+--&$+O$=>1,;O&66q86eadhdaurq8qqryadat8:o+O.+$&$=$$$",
"$&&$+$$$$&$+&=-=&$oo$&>>;o<>4q866wasdaurq668qerupr1-o..$$+$$$$$$",
"O+$$$&&$$$&+O+==$Ooo.$&-$$1&>64113quaaur863380qqwr,*o.++$$$+$$+o",
"61>&$+$&&$$OoOO+>,<>;--$O&$$&&$&$<6wuuyeq8-+&&&&$-&$-264<463<114",
"ay6-$.$&&$$$*&&&86yat02-$>-->--:-628ryre00&&==&&&&&$216uqeaarery",
"qr8=O.+#$$$$&#&&>&8u62;$$-----==*,><4qre86$&=&&&&&&$-&<e04wue068",
"60q1&X#$$&&$$&&&>>qy91<&$-&======-->16qw81+&&&=&&&$&==1qq630r822",
"<164=X+$$&$#&&&#>>1rw1-$$===*&&=&---:14981O#&&&&$&$&$$-466><882>",
"=:11=X+$$$$$&$$$>>-3q1-O+&&&=&&**----:2461O$=&&$$$$&O $:14<-161>",
"&$&-&X$+#$#+$&##----44-oO&&&=&*=&-----;>1<O$&$$$$$$$&$.$->>-$,1-",
"=OO&+X$+#$#$$##$&&:&$>-oO-&&&&$&&--:--*=>>o+$$$$$$$&$&$.o$--$$;>",
"&oXooo$##&&$####$&$-$$-OO&&&=$&$$&=;>:=$=-O$$#&$$$$$$$$$o.o$$oO&",
"OOOooO+$##$+#$+#O.O&$oooO$$&&$$$$$$->>-&+$o+$#&$&&$$$$$$$ooooooo"
};
