/* XPM */
static char *_540033590488[] = {
/* columns rows colors chars-per-pixel */
"64 64 95 2 ",
"   c #17331D",
".  c #19351E",
"X  c #1B3721",
"o  c #1E3A23",
"O  c #213D26",
"+  c #243E29",
"@  c #26412B",
"#  c #29442E",
"$  c #2C4631",
"%  c #2E4933",
"&  c #304735",
"*  c #314B36",
"=  c #344E39",
"-  c #394F3D",
";  c #36513B",
":  c #39533E",
">  c #3D5641",
",  c #3F5843",
"<  c #405745",
"1  c #415A46",
"2  c #455D49",
"3  c #485E4C",
"4  c #47604C",
"5  c #49614D",
"6  c #4D6551",
"7  c #4F6853",
"8  c #506754",
"9  c #526956",
"0  c #556C59",
"q  c #586E5C",
"w  c #5B715E",
"e  c #5C6F60",
"r  c #5D7361",
"t  c #627665",
"y  c #647867",
"u  c #667B69",
"i  c #697D6C",
"p  c #6F8271",
"a  c #748676",
"s  c #7A8B7C",
"d  c #7E8080",
"f  c #878786",
"g  c #888987",
"h  c #868888",
"j  c #8B8C8C",
"k  c #819082",
"l  c #8E908E",
"z  c #92928E",
"x  c #8E8F91",
"c  c #8F9091",
"v  c #949594",
"b  c #989693",
"n  c #979897",
"m  c #9A9996",
"M  c #959699",
"N  c #989799",
"B  c #979999",
"V  c #9C9C9B",
"C  c #A19F9B",
"Z  c #9FA09F",
"A  c #A2A19D",
"S  c #AAA59F",
"D  c #9E9FA1",
"F  c #A09FA2",
"G  c #9EA0A1",
"H  c #A4A4A4",
"J  c #A9A6A4",
"K  c #ABA9A6",
"L  c #A6A6A9",
"P  c #A8A7AA",
"I  c #A7A8A9",
"U  c #ACACAC",
"Y  c #B0A6A3",
"T  c #B2ACA5",
"R  c #BAAFA7",
"E  c #B1AEAC",
"W  c #B8AEA8",
"Q  c #AFB0AE",
"!  c #B5B0A7",
"~  c #B4B1AE",
"^  c #B9B4AD",
"/  c #AEAEB1",
"(  c #B0AFB1",
")  c #AFB0B1",
"_  c #B4B3B2",
"`  c #B9B6B3",
"'  c #B7B8B7",
"]  c #BCB9B6",
"[  c #B7B6BA",
"{  c #B9B7B8",
"}  c #BDBBB9",
"|  c #C1BCB6",
" . c #C1BEBB",
".. c #C4C1BD",
"X. c #C2C0C0",
/* pixels */
"_ ' ~ _ ] _  . ._ _ ' ' ' ~ ` Z < ; > 3 ; % % : , 4 , 2 4 1 4 4 H ) / / / / / ) _ / / / / / [ D + > > = , ; $ % * ; ; , ; 4 1 ; ",
"~ ' _ ' ] ` _ ' ' _ _ } ) ~ ..A 1 > : > $ $ ; ; 1 , > , 4 7 1 1 L / U ) _ _ [ ) _ / / / ) / _ D 1 6 2 > @ $ @ @ O ; % ; ; > , , ",
"E ' E U ^ ` ~ _ ] } ) ) U Q | A > : > : % $ > > 5 4 1 ; 7 5 1 4 G / _ [ ) [ ) I P / _ ( / / _ V > ; < , ; % $ @ @ % % @ # ; % % ",
"E ` ~ E _ _ ' } } } ' _ Q ~  .H > % < > * ; % > 6 4 1 : : : : 1 H ` _ _ / ) _ / / / _ [ / / [ V $ > 5 , % $ ; $ @ # @ @ $ % $ : ",
"` ] ~ ~ ' ` ] } ' X.| ` ] ~ ] Z > = < = % ; ; ; 4 4 ; * ; : : , L / / / ) / _ ) / / / U ( U { V 9 8 > : < $ % % @ @ @ % @ @ * * ",
"~ ' ` ] ] ~ Q Q ' ' } ` ' ~ ] V < ; : # @ # > > 4 4 * * ; , : : G / L L / I P P E _ _ [ E / } H 0 > = % , ; % ; : * ; , > > ; % ",
"` ` ] ` _ ~ ~ ` ' ^ ] ' ^ ` ] n 5 2 ; @ o @ $ ; 4 4 ; * ; 4 : ; G [ / / / L U P / _ { ( / / } D 6 ; % $ , 9 < ; : , : : 7 4 9 , ",
"` ` ` ~ ~ ` ^ ~ ! ^ ` ^ ~ ~ ] Z : 2 > ; : > $ 1 * , , , * : : ; L _ / / / / U / U U / / / / } V < 6 > = > 0 : ; # * : ; % * ; > ",
"' ~ ' ` _ ' K K Q ! ~ Q Q ~ | Z < : * , 3 7 , 2 ; 0 3 , ; ; : & D _ _ ) _ _ _ / _ / P / / / [ M * = : 4 * 4 1 : % : w ; : 4 6 1 ",
"Q ' ` ] ' ' U Z H I I I I I ^ b 3 0 * , 5 2 3 4 4 5 4 7 1 > : = V / / / U _ _ _ ' ( / / / _ _ M * # $ ; = : : = : 4 * , : # 1 ; ",
"^ ~ ^ ^ ~ ~ K G I I T Q Q T ~ n $ < 4 5 7 7 6 1 4 5 4 4 , > > $ H / / / E ( _ ' { _ U P _ ' } M # @ @ @ ; ; = ; 4 % o * % % % # ",
"` ' ^ ` ' Q Q ~ Q Q I ' ~ Q Q Z 6 9 w 1 : @ ; , 4 3 1 1 3 , ; $ G ) [ ) U E ( ' _ _ ( / ' ' } H # $ # # : * 4 : # ; @ : * % , : ",
"^ ^ ' ^ ^ ~ ~ ' ~ Q ~ U Q T Q B 6 5 5 ; # @ & , 5 : , 4 4 6 , > G [ ) L L ) I U / _ _ ( ( _ } V * 1 1 ; $ , t 8 * # O * % % : ; ",
"~ _ _ Q ~ Q ~ Q Q ' _ Q Q K I V < : < 1 % , ; : 1 : ; , = > > 3 L _ L L U / / U _ _ _ ( ~ _ { V @ # 1 5 ; 4 t p 9 1 * ; # # * % ",
"] ] ] ' ^ ' ] _ ~ ' ` _ ~ U ^ Z 3 1 3 4 , : * ; ; * % 7 9 > > > I [ / ) _ U U / { } } } ` _ } C # O # ; ; = : 8 w , : 1 * 1 4 ; ",
"Z n n Z V Z H n n Z V n n Z Z l > > : 1 5 3 3 > # $ * 3 8 > > > x v v M M M c v V V D V C N V g = % $ & @ & 1 * 4 * ; : & 5 q 9 ",
": , 1 , > : , 3 4 3 5 8 8 t q 1 C K Z m Z G Z Z J J Z K H Z S h = & w 8 ; = ; % = : : % & $ $ & A U J S E E E E U E E E E K U V ",
": : : ; ; * ; 2 4 5 7 1 1 q w 3 ~  .T K T U Q ` ] ^ ~ _ _ Q U M > 4 u w w 5 : # ; * % @ @ # # $ ~  .[ ^ X.X. .X... ...|  . ...E ",
", ; : ; ; ; ; > ; 4 9 1 4 4 4 5 Q ] U I U U _ U H K K L I J H j 3 q t 8 5 9 y 5 > > $ @ # $ @ = E  .` |  .} | {  . . .` ` }  .K ",
"; : 4 * ; ; ; > , 1 1 4 1 : > > J ~ U _ ] Q _ U J H L U J G H g : : ; # * 4 1 5 3 < : % % = * = (  .{ | | |  . . .{ { [ _ ` } K ",
", * : 4 : , , 4 1 1 : : : 1 1 : S ^ ~ ! U U I E ~ U H H J L L j > > 3 > : # # ; ; * , : ; : ; % E | {  .X. .|  .} } } ` ` [ ` J ",
"; * ; : : > > , , , ; * * : > < I ^ K K K Q I ~ _ _ L H U T U v < : : , , * , ; % % % ; = < , ; K { ` ] [ [ {  .| | } ] } ]  .K ",
"% % ; @ * % % ; % % ; # O # $ ; A T K U U I K ` ` U / ) ~ ~ I j > ; : ; % 4 , ; ; % % ; = % & = E { ( ` ] ] {  . .[ ] } ] ` ` H ",
"% % % @ $ @ = % @ @ @ @ O # @ $ K I U U _ ' K I U Q ` _ ~ K L j = : , < , , 3 1 : $ ; , ; ; ; = K | ] ] ] ] ] {  .] } ] ] ` } J ",
"; ; * % # & > @ @ + $ % + ; & $ K Q Q Q I U I I ~ ` ~ ~ E K I v = * = ; : , ; , < ; ; ; * ; ; ; H { _ ' ] ] ] ] }  . .} _ {  .H ",
"% @ ; * # + : @ O . % & + # # @ G Q K ~ ! S L H U U ! T E _ _ c & : ; * % ; = % = * > , ; ; ; : U ` E _ }  .| ] | }  .} ` |  .K ",
"@ @ $ # + # = = @ @ # O O O o + H Q U I Q ` _ U H L K J I I _ v ; : ; $ * > % % % $ = 7 4 3 ; : K ] _ ` } ] ` ] | ] ` ` ` ] | J ",
"# O o O O + X O X # * * $ o . O Z I I ) Q Q _ ) L I L L U P [ M $ % $ # % * ; * % # = < , > , : K } ` ] ^ ] ` ] ` ` _ ` ` |  .S ",
"@ o @ o   O # # @ O @ + # $ + # H Q L ~ _ _ ) U L U E _ _ K _ m % @ ; % # ; ; ; 5 6 > > : = $ = K | ` ^ ` ] ] ` ` ~ ~ ` _ ` ..K ",
"# o O o .   O & % @ @ @ + $ % * H I U ) _ ' ` U I I I U E K E n : ; ; > , 1 % ; > 5 1 > = = = & K [ E ` ^ ~ ^ ^ ` ^ ~ ^ ~ ] | A ",
"# O # o X . . + @ o # & # @ * : K } E _ _ } _ _ _ _ E E _ ] } V : 1 5 4 4 , , ; > : : > 3 1 # # ^  .| ] ] ] ` | ]  ...| ..|  .H ",
"# & : @ + + O * & @ $ & + * < & l V v V Z V M M m m m M m V V g : < w 9 , 3 4 > 1 : = > < : = * C C C C m C A C A A A S A A H j ",
"D D m H V Z L I K K K I L K K b 1 % % ; : = = 4 < : : : : & = < H K H A G H I I G I A Z H A I z 4 4 : = # O @ % ; & @ % & & % & ",
"U / H H P }  .} } ] ] ` ~ ~ ..H , $ % * * % * ; 5 , = % * % & 1 ' } _ _ _ _ ` _ ' ~ Q ~ ` ~ ! b ; : 1 : 1 = $ @ ; @ # @ # # % ; ",
"T H L _ } ` _ U _ _ ` ` ` ~  .C 3 3 ; : > * * * ; ; , 1 ; ; = < U ..` U K Q ~ ~ ~ Q Q ~ Q S T b : : 4 1 : ; 2 4 * , : , = $ * 1 ",
"I P _ } _ _ P H _ ` U _ ] ` ] V % 2 2 1 1 1 , : 1 $ & 1 4 : : * K | U Q ~ _ ~ J ~ ~ ~ ~ Q ! ^ V : 1 5 * $ & : 2 1 5 2 8 k y * @ ",
"E ( ` ` ` _ E _ ` ` U _ L K _ V $ @ % < 4 w 1 ; * % # < 7 3 # > J _ Q Q Q _ ^ Q Q ' ^ ^ ' U ~ n 1 1 3 * * ; > : 1 1 4 0 u r 9 4 ",
"` ` ` ' ' ~ ~ _ ` ~ ` U L I U V : & % % ; 4 4 % $ * # ; * * * : A ' ` ^ Q ` _ Q Q ' ~ ' ` _ _ n = > & = ; : 1 1 5 6 6 w t 8 6 4 ",
"E ` _ U H L E ] ^ ] ` ` _ ~ ] v 9 1 % * * ; 4 ; % $ ; * : # % ; I ' _ ' U Q ^ _ ~ Q K S K U E M - = $ : O ; & : 4 4 q 4 9 q w : ",
"E U E I H K U ` ~ ^ ] ] ~ H L v > 5 5 , : > ; 4 4 1 : ; 1 > % % J ~ _ ] _ ' Q K T ^ R ! _ ~ E v = : = = # = 5 ; , 1 0 1 1 1 6 : ",
"I U ' U U ( ( W W ` ` ` ~ L I V - = , 7 3 , < > : 1 4 : * 5 , ; J ' Q ^ ' ~ ~ Q T T K T _ E ~ m * # 4 0 6 # 1 0 : : 7 p 4 ; : # ",
"N U _ E _ ` ` ` ` ` ~ ^ ^ ~ ` m > : , 3 3 4 4 7 , ; > 4 1 : 1 : K ' ~ Q ~ Q ~ ` _ ~ K Z K I L v ; * 4 6 7 > ; * : : 4 y p 9 1 * ",
"L / _ E ` ` _ _ ~ U E ` _ ~ ` V < 2 1 > ; 4 5 4 0 5 , , , , , ; I | ^ ' ^ ^ ~ ^ ` _ Q S C I ( M * 5 , * 1 > 1 : : : 1 : 5 t w = ",
"U ( P E E ` ` E ` I E ` ` ~ ` C 7 7 1 : 1 5 6 5 w 0 1 4 , : : , I ~ ' _ ^ ' T K ` ~ Q ~ T E ` m 3 1 : ; % ; ; 4 , : : = # * : , ",
"E ~ I E ~ _ ^ U E ' U E ~ ^ } V 6 7 2 > 9 0 7 7 7 9 7 4 4 : ; > S ~ ^ ' ^ ' ^ ! ^ ~ Q ! ~ U ( C 1 1 ; * % * % % , 8 4 : * # # @ ",
"H E U F ( ` ` U U U I _ _ U _ M 2 2 = > 5 , 4 7 9 4 5 5 3 3 : : S ' ~ ! ^ ` ^ ~ Q Q K I L H E N : : 1 1 4 : ; * : 5 5 : * * = $ ",
"H U P P ` ` ( U _ ` _ ]  .` } V - > % ; : > , 4 4 5 7 5 , 4 < : K ` ] ` | ] ` ^ ` ~ ' ~ K U _ j ; , 1 5 6 9 1 , : 4 r w : # * $ ",
"z v m V n n x b m m b V m M V h 1 = = > : : ; : , 3 3 < , < , - l Z Z Z Z m A Z V b V Z b M A s > 1 , 2 5 5 6 0 5 4 9 w : $ = $ ",
"+ # = < 5 < 1 5 : & # = $ + % - v G G H L H D G G D M M N L _ V - $ & = $ $ $ + = - $ $ $ & < < m E U U U E E E E E E U _ _ _ C ",
"$ & > : 0 9 0 9 ; * ; % % % # = D _ / / ) ) / P / H G / _ ( } D $ @ % % & $ @ @ > : + > % * > = E  .} }  . .{  .X. . ...} }  .U ",
"< , < 3 w 5 9 1 7 4 1 * % # % = H E U _ P L I D D P / / L I I j < = 3 8 7 5 = 0 3 8 : 1 > ; > < P } } } { ` ` } } } } { ` [ { F ",
"8 8 3 7 4 4 1 : 9 < : ; = $ * = C ~ ( / H L I L P / / P I U _ v 6 i s w q 0 9 0 0 a 7 4 , : ; > P { ' } { _ { { } } } } ] _ } P ",
"* 4 , : : : ; 7 9 > , * * # $ % B P L H G P / / / / U ( ( U ( M & % > 1 > % @ @ 9 7 3 * % ; ; = I ' [ } ' [ [ _ ]  .| { ] ` ] J ",
", ; % * : , 4 9 7 ; , , @ : 5 3 M P L P ) / / _ _ / ( _ / / P x > ; # = 2 $ $ + 8 : ; $ & 7 ; : G _ _ _ _ _ _ ` { { [ ] ] ] | J ",
"8 7 : ; 7 8 : : > ; * , * 5 w 8 B H L I / / / _ P / / / U / / j > 4 1 < q u k 1 r 0 5 < 5 a 4 & G _ _ _ [ ' ` { ] ] {  .| { | J ",
", < 4 * 5 1 % $ ; ; = : > 5 ; ; D / / / / / / / / / / / _ _ ( v - 1 5 5 7 r u 9 7 , 6 0 7 r w 1 L ] ` ` { } { } { ] { { | { | Y ",
"; > : , 1 ; * ; = ; > 5 5 > , ; D / / _ ( / U U / ( E ( ( _ E b % : 2 4 4 4 , , , % # ; % , < 3 U [ W [ ( ^ ^ ` | { | ` ` `  .Y ",
"* ; * 4 : * ; : : 1 9 5 1 : 4 ; V / P U P U / U / E ( U E E T l $ = ; < > < 4 = : # % % # * % % D ( ^ E Y W E ` | ` ] ] ` `  .Y ",
"* # : , : : > * 1 6 ; > 5 1 , ; c / U I I U E ( ( ( ( ` ( E ^ v - : > = = 6 3 , % % % @ # ; # * I | | W W ( E [ ` ` ] { ~ ` ` F ",
": * : : # * 1 4 4 : ; ; , : > : N I I P U E U E _ U E E ( E E v > , > : 4 : 2 , * * * % ; * # ; E } ( ` | ` ` E W ^ ( W E ` | F ",
": * 1 : % % % 1 5 2 = = 3 4 , ; M / P / U U U / / _ _ U ( ^ ` v = ; : > , ; ; ; # @ : ; @ % $ = P ` ^ ` ] ` _ E W W W R W W | F ",
"1 : 6 4 ; ; 7 3 > , , , 9 9 > = M / L H L L U U I E U E E ( E x & % , = % * ; % % # , < # : $ & K } ` } } E ^ ( [ W | | W ^ | Y ",
"5 5 1 > ; , 6 , ; > 5 2 2 2 % & D P F J U I U E / E U ( E E ~ M # $ , * % : > ; % * = < $ % # $ U } _ _ _ E P ( [ ^ | Y R | | F ",
"5 , * % : < % % % % 3 > @ % $ % x D c c v N M V V N N V V V V f # @ : % % $ % = @ # @ : # + + $ x V F C C C N C C C C C C F Y N "
};
